
<svg xmlns="http://www.w3.org/2000/svg" xmlns:xlink="http://www.w3.org/1999/xlink" version="1.1" x="0px" y="0px" viewBox="0 0 20 20" enable-background="new 0 0 100 100" xml:space="preserve"><g><path d="M45,15.971c8.492,0,16.353,4.615,20.512,12.043c1.955,3.495,2.988,7.457,2.988,11.457v21.059   c0,2.293-0.594,4.565-1.715,6.572c-2.393,4.273-6.908,6.928-11.785,6.928s-9.393-2.655-11.785-6.928   c-1.121-2.003-1.715-4.276-1.715-6.572V40.563c0-0.608,0.174-1.22,0.503-1.769c0.67-1.116,1.733-1.731,2.997-1.731   c1.263,0,2.327,0.614,2.996,1.729c0.33,0.55,0.504,1.162,0.504,1.771v20c0,1.152,0.322,2.297,0.93,3.313   c1.214,2.025,3.244,3.187,5.57,3.187c2.324,0,4.354-1.162,5.57-3.188c0.607-1.016,0.93-2.161,0.93-3.312v-20   c0-0.016-0.004-0.031-0.005-0.046c0.001-0.016,0.005-0.03,0.005-0.046c0-9.677-7.402-17.55-16.5-17.55s-16.5,7.873-16.5,17.55   c0,0.01,0.003,0.019,0.003,0.029S28.5,40.519,28.5,40.529v20c0,4.512,1.166,8.98,3.371,12.922   C36.561,81.827,45.422,87.029,55,87.029c0.828,0,1.5-0.671,1.5-1.5s-0.672-1.5-1.5-1.5c-8.492,0-16.353-4.615-20.512-12.043   C32.533,68.492,31.5,64.53,31.5,60.529v-20c0-0.01-0.003-0.019-0.003-0.029s0.003-0.019,0.003-0.029   c0-8.023,6.057-14.55,13.5-14.55s13.5,6.527,13.5,14.55c0,0.016,0.004,0.031,0.005,0.046c-0.001,0.016-0.005,0.03-0.005,0.046v20   c0,0.608-0.174,1.22-0.503,1.769c-0.67,1.116-1.733,1.731-2.997,1.731s-2.328-0.614-2.996-1.729   c-0.33-0.55-0.504-1.162-0.504-1.771v-20c0-1.152-0.322-2.297-0.931-3.314c-1.216-2.025-3.245-3.186-5.569-3.186   s-4.354,1.162-5.57,3.188c-0.588,0.983-0.902,2.088-0.922,3.202c-0.002,0.026-0.008,0.05-0.008,0.076v0.034v19.966v0.034   c0,0.005,0.002,0.011,0.002,0.016c0.008,2.791,0.731,5.552,2.096,7.987c2.921,5.22,8.439,8.463,14.402,8.463   s11.481-3.243,14.402-8.463c1.373-2.453,2.098-5.232,2.098-8.037V39.471c0-4.512-1.166-8.98-3.371-12.922   C63.439,18.173,54.578,12.971,45,12.971c-0.828,0-1.5,0.671-1.5,1.5S44.172,15.971,45,15.971z"></path><path d="M25,40.971c0.828,0,1.5-0.671,1.5-1.5c0-3.148,0.813-6.265,2.352-9.014c3.274-5.852,9.462-9.486,16.148-9.486   c6.685,0,12.872,3.635,16.148,9.485c1.538,2.75,2.352,5.867,2.352,9.015v21.059c0,1.441-0.373,2.869-1.078,4.13   c-1.509,2.695-4.353,4.37-7.422,4.37c-3.068,0-5.912-1.674-7.422-4.369c-0.705-1.262-1.078-2.691-1.078-4.131v-20   c0-0.829-0.672-1.5-1.5-1.5s-1.5,0.671-1.5,1.5v20c0,1.952,0.505,3.887,1.461,5.596C47,69.767,50.846,72.029,55,72.029   s8.001-2.263,10.039-5.905c0.956-1.708,1.461-3.642,1.461-5.595V39.471c0-3.66-0.945-7.283-2.734-10.48   C59.96,22.193,52.77,17.971,45,17.971c-7.771,0-14.963,4.223-18.766,11.021c-1.789,3.195-2.734,6.819-2.734,10.479   C23.5,40.299,24.172,40.971,25,40.971z"></path><path d="M55,79.029c-6.687,0-12.874-3.635-16.148-9.485c-1.538-2.75-2.352-5.867-2.352-9.015v-1v-19v-1   c0-1.441,0.373-2.869,1.078-4.13c1.509-2.695,4.353-4.37,7.422-4.37c3.068,0,5.912,1.674,7.422,4.369   c0.705,1.262,1.078,2.691,1.078,4.131v20c0,0.829,0.672,1.5,1.5,1.5s1.5-0.671,1.5-1.5v-20c0-1.952-0.505-3.887-1.461-5.596   C53,30.292,49.154,28.029,45,28.029s-8.001,2.263-10.039,5.905c-0.956,1.708-1.461,3.642-1.461,5.595v1v19v1   c0,3.66,0.945,7.283,2.734,10.479C40.038,77.807,47.229,82.029,55,82.029c7.77,0,14.96-4.223,18.766-11.021   c1.789-3.195,2.734-6.819,2.734-10.479c0-0.829-0.672-1.5-1.5-1.5s-1.5,0.671-1.5,1.5c0,3.148-0.813,6.265-2.352,9.013   C67.872,75.394,61.685,79.029,55,79.029z"></path></g></svg>